<svg xmlns="http://www.w3.org/2000/svg" width="230.5" height="18.625" viewBox="0 0 230.5 18.625">
  <defs>
    <style>
      .cls-1 {
        fill: #fff;
        fill-rule: evenodd;
      }
    </style>
  </defs>
  <path id="Powered_by" data-name="Powered by" class="cls-1" d="M331.568,832.045l5.712-5.659,5.712,5.659L337.28,837.7Zm-5.97,5.914,5.712-5.659,5.712,5.659-5.712,5.659Zm23.875,0.012,5.712-5.66,5.712,5.66-5.712,5.658Zm-5.971-5.915,5.712-5.659,5.712,5.659-5.712,5.659Zm-5.97,5.9,5.712-5.659,5.712,5.659-5.712,5.659ZM371.059,832a4.34,4.34,0,0,1,3.66-2.1,1.566,1.566,0,0,1,.9.248,2.31,2.31,0,0,1,.691,1.058,11.677,11.677,0,0,1,.324,3.5v8.953q0.9-.049,1.888-0.049h2.4q-0.2-2.577-.2-6.806V832.45a2.127,2.127,0,0,0-.017-0.264,6.033,6.033,0,0,1,1.4-1.751,2.4,2.4,0,0,1,.782-0.4,3.374,3.374,0,0,1,.956-0.124,1.843,1.843,0,0,1,.94.232q1.2,0.726,1.2,4.592v8.937q0.9-.049,1.514-0.049h1.248q0.631,0,1.963.115l0.033-.066c-0.066-.088-0.147-0.187-0.241-0.3a1.612,1.612,0,0,1-.225-0.727q-0.082-.561-0.083-3.353v-6.575a7.985,7.985,0,0,0-1.314-4.857,4.382,4.382,0,0,0-1.647-1.355,5.568,5.568,0,0,0-2.421-.479,6.26,6.26,0,0,0-2.836.711,8.66,8.66,0,0,0-2.13,1.718,4.318,4.318,0,0,0-4.109-2.429,7.444,7.444,0,0,0-4.675,1.817v-1.486H366.85v17.263h4.342q-0.134-1.058-.133-4.774V832Zm23.509,9.235a9.53,9.53,0,0,0,13.193-.05,9.007,9.007,0,0,0,2.346-6.376,8.746,8.746,0,0,0-2.279-6.261,8.4,8.4,0,0,0-6.422-2.528A8.7,8.7,0,0,0,394.8,828.7a8.588,8.588,0,0,0-1.788,2.9,9.8,9.8,0,0,0-.624,3.477,8.8,8.8,0,0,0,2.179,6.162h0Zm3.028-9.879a4.269,4.269,0,0,1,3.544-1.619,4.347,4.347,0,0,1,3.51,1.52,6.438,6.438,0,0,1,.033,7.434,4,4,0,0,1-3.277,1.47,4.694,4.694,0,0,1-3.627-1.5,4.758,4.758,0,0,1-1-1.669,5.921,5.921,0,0,1-.35-2.015,5.69,5.69,0,0,1,1.165-3.618h0Zm19.1,12.258h3.427L427,826.355h-4.609L418.46,837.72,414.4,826.355h-4.709Zm13.244-2.2a10.151,10.151,0,0,0,6.988,2.445,13.329,13.329,0,0,0,1.6-.1,9.493,9.493,0,0,0,4.092-1.189L442.8,840c0.034-.485.061-0.958,0.084-1.421a3.674,3.674,0,0,1-.749.463,10.115,10.115,0,0,1-4.542.941,7.684,7.684,0,0,1-4.109-.982,4.352,4.352,0,0,1-2.013-2.751h5.856a31.046,31.046,0,0,0,6.771-.463,5.315,5.315,0,0,0,.2-1.784,7.924,7.924,0,0,0-2.113-5.649,7.369,7.369,0,0,0-5.69-2.33,9.121,9.121,0,0,0-6.788,2.627,8.764,8.764,0,0,0-1.88,2.891,9.5,9.5,0,0,0-.665,3.585,8.033,8.033,0,0,0,2.778,6.294h0Zm8.951-8.326-1.365.049q-0.815.016-1.663,0.017h-0.949q-0.565,0-1.181-.017H432.5q-0.582-.016-0.982-0.033a5.722,5.722,0,0,1,.616-1.453,4.229,4.229,0,0,1,3.843-2.165q3.211,0,3.893,3.552-0.432.033-.981,0.05h0Zm8.569,8.144a9.53,9.53,0,0,0,13.193-.05A9.007,9.007,0,0,0,463,834.813a8.746,8.746,0,0,0-2.279-6.261,8.4,8.4,0,0,0-6.422-2.528,8.7,8.7,0,0,0-6.6,2.677,8.59,8.59,0,0,0-1.789,2.9,9.824,9.824,0,0,0-.623,3.477,8.8,8.8,0,0,0,2.179,6.162h0Zm3.028-9.879a4.269,4.269,0,0,1,3.544-1.619,4.347,4.347,0,0,1,3.51,1.52,6.438,6.438,0,0,1,.033,7.434,4,4,0,0,1-3.277,1.47,4.693,4.693,0,0,1-3.627-1.5,4.758,4.758,0,0,1-1-1.669,5.921,5.921,0,0,1-.35-2.015,5.69,5.69,0,0,1,1.165-3.618h0Zm-215.032-1.826h-2.95v11.313h1.323V836.4h1.339a5.361,5.361,0,0,0,3.374-.925,3.16,3.16,0,0,0,1.179-2.642q0-3.3-4.265-3.3h0Zm-1.627,1.138h1.479a3.883,3.883,0,0,1,2.3.549,1.947,1.947,0,0,1,.739,1.671,2.076,2.076,0,0,1-.786,1.811,4.441,4.441,0,0,1-2.545.565H233.83v-4.6Zm13.749,2.723a3.619,3.619,0,0,0-2.845-1.183,3.7,3.7,0,0,0-2.9,1.156A4.658,4.658,0,0,0,240.8,836.6a5.31,5.31,0,0,0,.483,2.337,3.533,3.533,0,0,0,1.37,1.532,3.859,3.859,0,0,0,2.031.534,3.71,3.71,0,0,0,2.9-1.165A5.457,5.457,0,0,0,247.579,833.4Zm-4.8.736a2.28,2.28,0,0,1,1.914-.828,2.317,2.317,0,0,1,1.942.839,3.922,3.922,0,0,1,.658,2.457,3.983,3.983,0,0,1-.658,2.48,2.6,2.6,0,0,1-3.848,0,4.006,4.006,0,0,1-.654-2.476A3.963,3.963,0,0,1,242.781,834.131Zm16.616,6.716,2.358-8.481h-1.339q-1.486,5.666-1.623,6.245a8.413,8.413,0,0,0-.167.859h-0.062a16.3,16.3,0,0,0-.592-2.236l-1.525-4.868h-1.4l-1.564,4.868q-0.139.409-.331,1.11t-0.276,1.141h-0.062a19.77,19.77,0,0,0-.495-2.251q-0.432-1.673-1.256-4.868h-1.355l2.327,8.481h1.5l1.611-4.96q0.233-.735.544-2.089h0.063q0.4,1.617.552,2.074l1.564,4.975H259.4Zm8.977,0.027a6.871,6.871,0,0,0,1.3-.421v-1.146a6.9,6.9,0,0,1-2.724.573,2.633,2.633,0,0,1-2.028-.774,3.343,3.343,0,0,1-.758-2.267h5.875v-0.813a4,4,0,0,0-.934-2.766,3.224,3.224,0,0,0-2.537-1.048,3.38,3.38,0,0,0-2.727,1.207,4.89,4.89,0,0,0-1.016,3.257,4.42,4.42,0,0,0,1.093,3.181A3.933,3.933,0,0,0,266.9,841,7.336,7.336,0,0,0,268.374,840.874Zm-0.269-6.941a2.814,2.814,0,0,1,.545,1.861h-4.459a3.046,3.046,0,0,1,.72-1.841,2.114,2.114,0,0,1,1.638-.666A1.924,1.924,0,0,1,268.105,833.933Zm6.553-1.273a3.751,3.751,0,0,0-1.144,1.277h-0.062l-0.148-1.571h-1.066v8.481h1.292V836.3a3.037,3.037,0,0,1,.735-2.081,2.28,2.28,0,0,1,1.771-.836,4.458,4.458,0,0,1,.934.116l0.179-1.192a5.084,5.084,0,0,0-1.02-.092A2.587,2.587,0,0,0,274.658,832.66Zm9.164,8.214a6.871,6.871,0,0,0,1.3-.421v-1.146a6.9,6.9,0,0,1-2.724.573,2.631,2.631,0,0,1-2.027-.774,3.349,3.349,0,0,1-.759-2.267h5.876v-0.813a4.007,4.007,0,0,0-.934-2.766,3.227,3.227,0,0,0-2.537-1.048,3.381,3.381,0,0,0-2.728,1.207,4.9,4.9,0,0,0-1.016,3.257,4.42,4.42,0,0,0,1.094,3.181A3.932,3.932,0,0,0,282.347,841,7.329,7.329,0,0,0,283.822,840.874Zm-0.268-6.941a2.814,2.814,0,0,1,.544,1.861h-4.459a3.059,3.059,0,0,1,.72-1.841,2.114,2.114,0,0,1,1.638-.666A1.926,1.926,0,0,1,283.554,833.933Zm10.109,6.914h1.051v-12.04h-1.292v3.451l0.031,0.6,0.054,0.611h-0.1a3.105,3.105,0,0,0-2.661-1.253,3.15,3.15,0,0,0-2.6,1.16,5.076,5.076,0,0,0-.934,3.258,4.989,4.989,0,0,0,.93,3.235,3.176,3.176,0,0,0,2.6,1.137,3.043,3.043,0,0,0,2.677-1.292h0.07Zm-4.514-1.749a4.169,4.169,0,0,1-.6-2.453,4.351,4.351,0,0,1,.6-2.48,1.982,1.982,0,0,1,1.74-.878,2.3,2.3,0,0,1,1.926.77,4.237,4.237,0,0,1,.6,2.573V836.9a3.6,3.6,0,0,1-.6,2.31,2.357,2.357,0,0,1-1.918.715A2.032,2.032,0,0,1,289.149,839.1Zm13.736-5.6h-0.062q0.063-.781.062-1.764v-2.925h-1.292v12.04h0.927l0.272-1.091h0.093a2.858,2.858,0,0,0,1.156.94,3.7,3.7,0,0,0,1.522.306,3.166,3.166,0,0,0,2.6-1.157,6.082,6.082,0,0,0,.008-6.477,3.182,3.182,0,0,0-2.611-1.141,3.075,3.075,0,0,0-2.678,1.269h0Zm4.3,0.619a4.246,4.246,0,0,1,.584,2.469,4.417,4.417,0,0,1-.584,2.48,2,2,0,0,1-1.774.862,2.284,2.284,0,0,1-1.922-.769,5.788,5.788,0,0,1-.016-5.1,2.262,2.262,0,0,1,1.907-.754A2.072,2.072,0,0,1,307.181,834.115Zm6.265,6.779-0.474,1.207a1.973,1.973,0,0,1-1.9,1.486,4.532,4.532,0,0,1-.958-0.093v1.029a5.209,5.209,0,0,0,1.168.131,2.72,2.72,0,0,0,1.786-.6,4.814,4.814,0,0,0,1.272-2.032l3.666-9.657h-1.385q-1.791,4.922-2.113,5.877t-0.425,1.351h-0.062a18.228,18.228,0,0,0-.763-2.391l-1.867-4.837h-1.386Z" transform="translate(-232.5 -826.031)"/>
</svg>
